<svg xmlns="http://www.w3.org/2000/svg" id="mermaid-1558493488491" width="100%" height="100%" viewBox="-150 -10 950 666" style="max-width:950px"><style>#mermaid-1558493488491 .actor{stroke:#ccf;fill:#ececff}#mermaid-1558493488491 text.actor{fill:#000;stroke:none}#mermaid-1558493488491 .actor-line{stroke:gray}#mermaid-1558493488491 .messageLine0{stroke-width:1.5;stroke-dasharray:&apos;2 2&apos;;stroke:#333}#mermaid-1558493488491 #arrowhead{fill:#333}#mermaid-1558493488491 #crosshead path{fill:#333!important;stroke:#333!important}#mermaid-1558493488491 .messageText{fill:#333;stroke:none}#mermaid-1558493488491 .note{stroke:#aa3;fill:#fff5ad}#mermaid-1558493488491 .noteText{fill:#000;stroke:none;font-family:&apos;trebuchet ms&apos;,verdana,arial;font-size:14px}#mermaid-1558493488491 .activation0{fill:#f4f4f4;stroke:#666}</style><style>#mermaid-1558493488491{color:rgba(0,0,0,.65)}</style><g><line id="actor0" x1="75" x2="75" y1="5" y2="655" stroke="#999" stroke-width=".5" class="actor-line"/><rect width="150" height="65" x="0" y="0" fill="#eaeaea" stroke="#666" class="actor" rx="3" ry="3"/><text x="75" y="32.5" alignment-baseline="central" class="actor" dominant-baseline="central" style="text-anchor:middle;font-size:14px;font-family:Open-Sans,sans-serif"><tspan x="75" dy="0">Front End or Plugins</tspan></text></g><g><line id="actor1" x1="275" x2="275" y1="5" y2="655" stroke="#999" stroke-width=".5" class="actor-line"/><rect width="150" height="65" x="200" y="0" fill="#eaeaea" stroke="#666" class="actor" rx="3" ry="3"/><text x="275" y="32.5" alignment-baseline="central" class="actor" dominant-baseline="central" style="text-anchor:middle;font-size:14px;font-family:Open-Sans,sans-serif"><tspan x="275" dy="0">OpenPAI Core</tspan></text></g><g><line id="actor2" x1="475" x2="475" y1="5" y2="655" stroke="#999" stroke-width=".5" class="actor-line"/><rect width="150" height="65" x="400" y="0" fill="#eaeaea" stroke="#666" class="actor" rx="3" ry="3"/><text x="475" y="32.5" alignment-baseline="central" class="actor" dominant-baseline="central" style="text-anchor:middle;font-size:14px;font-family:Open-Sans,sans-serif"><tspan x="475" dy="0">Runtime (in container)</tspan></text></g><g><line id="actor3" x1="675" x2="675" y1="5" y2="655" stroke="#999" stroke-width=".5" class="actor-line"/><rect width="150" height="65" x="600" y="0" fill="#eaeaea" stroke="#666" class="actor" rx="3" ry="3"/><text x="675" y="32.5" alignment-baseline="central" class="actor" dominant-baseline="central" style="text-anchor:middle;font-size:14px;font-family:Open-Sans,sans-serif"><tspan x="675" dy="0">Storage</tspan></text></g><defs><marker id="arrowhead" markerHeight="4" markerWidth="6" orient="auto" refX="5" refY="2"><path d="M 0,0 V 4 L6,2 Z"/></marker></defs><defs><marker id="crosshead" markerHeight="8" markerWidth="15" orient="auto" refX="16" refY="4"><path fill="#000" stroke="#000" stroke-width="1" d="M 9,2 V 6 L16,4 Z" style="stroke-dasharray:0,0"/><path fill="none" stroke="#000" stroke-width="1" d="M 0,1 L 6,7 M 6,1 L 0,7" style="stroke-dasharray:0,0"/></marker></defs><g><rect width="150" height="36" x="-100" y="75" fill="#EDF2AE" stroke="#666" class="note" rx="0" ry="0"/><text x="-104" y="99" fill="#000" class="noteText"><tspan x="-84" fill="#000">User</tspan></text></g><g><text x="75" y="139" class="messageText" style="text-anchor:middle">prepare data &amp; codes *</text><path stroke="#000" stroke-width="2" marker-end="url(#arrowhead)" d="M 75,146 C 135,136 135,176 75,166" class="messageLine0" style="fill:none"/></g><g><text x="175" y="204" class="messageText" style="text-anchor:middle">submit a job *</text><line x1="75" x2="275" y1="211" y2="211" stroke="#000" stroke-width="2" marker-end="url(#arrowhead)" class="messageLine0" style="fill:none"/></g><g><text x="375" y="239" class="messageText" style="text-anchor:middle">pass info through Protocol</text><line x1="275" x2="475" y1="246" y2="246" stroke="#000" stroke-width="2" marker-end="url(#arrowhead)" class="messageLine0" style="fill:none"/></g><g><rect width="10" height="252" x="470" y="248" fill="#EDF2AE" stroke="#666" class="activation0" rx="0" ry="0"/></g><g><rect width="150" height="36" x="500" y="256" fill="#EDF2AE" stroke="#666" class="note" rx="0" ry="0"/><text x="496" y="280" fill="#000" class="noteText"><tspan x="516" fill="#000">parse protocol *</tspan></text></g><g><rect width="250" height="36" x="450" y="302" fill="#EDF2AE" stroke="#666" class="note" rx="0" ry="0"/><text x="446" y="326" fill="#000" class="noteText"><tspan x="466" fill="#000">access data (if any) *</tspan></text></g><g><rect width="150" height="36" x="500" y="348" fill="#EDF2AE" stroke="#666" class="note" rx="0" ry="0"/><text x="496" y="372" fill="#000" class="noteText"><tspan x="516" fill="#000">execute cmds *</tspan></text></g><g><rect width="150" height="36" x="500" y="394" fill="#EDF2AE" stroke="#666" class="note" rx="0" ry="0"/><text x="496" y="418" fill="#000" class="noteText"><tspan x="516" fill="#000">callbacks *</tspan></text></g><g><text x="577.5" y="458" class="messageText" style="text-anchor:middle">save annotated files *</text><line x1="480" x2="675" y1="465" y2="465" stroke="#000" stroke-width="2" marker-end="url(#arrowhead)" class="messageLine0" style="fill:none"/></g><g><text x="372.5" y="493" class="messageText" style="text-anchor:middle">exit container</text><line x1="470" x2="275" y1="500" y2="500" stroke="#000" stroke-width="2" marker-end="url(#arrowhead)" class="messageLine0" style="fill:none"/></g><g><text x="175" y="528" class="messageText" style="text-anchor:middle">query job info *</text><line x1="75" x2="275" y1="535" y2="535" stroke="#000" stroke-width="2" marker-end="url(#arrowhead)" class="messageLine0" style="fill:none"/></g><g><text x="375" y="563" class="messageText" style="text-anchor:middle">fetch job outputs *</text><line x1="75" x2="675" y1="570" y2="570" stroke="#000" stroke-width="2" marker-end="url(#arrowhead)" class="messageLine0" style="fill:none"/></g><g><rect width="150" height="65" x="0" y="590" fill="#eaeaea" stroke="#666" class="actor" rx="3" ry="3"/><text x="75" y="622.5" alignment-baseline="central" class="actor" dominant-baseline="central" style="text-anchor:middle;font-size:14px;font-family:Open-Sans,sans-serif"><tspan x="75" dy="0">Front End or Plugins</tspan></text></g><g><rect width="150" height="65" x="200" y="590" fill="#eaeaea" stroke="#666" class="actor" rx="3" ry="3"/><text x="275" y="622.5" alignment-baseline="central" class="actor" dominant-baseline="central" style="text-anchor:middle;font-size:14px;font-family:Open-Sans,sans-serif"><tspan x="275" dy="0">OpenPAI Core</tspan></text></g><g><rect width="150" height="65" x="400" y="590" fill="#eaeaea" stroke="#666" class="actor" rx="3" ry="3"/><text x="475" y="622.5" alignment-baseline="central" class="actor" dominant-baseline="central" style="text-anchor:middle;font-size:14px;font-family:Open-Sans,sans-serif"><tspan x="475" dy="0">Runtime (in container)</tspan></text></g><g><rect width="150" height="65" x="600" y="590" fill="#eaeaea" stroke="#666" class="actor" rx="3" ry="3"/><text x="675" y="622.5" alignment-baseline="central" class="actor" dominant-baseline="central" style="text-anchor:middle;font-size:14px;font-family:Open-Sans,sans-serif"><tspan x="675" dy="0">Storage</tspan></text></g></svg>